<?xml version="1.0" encoding="UTF-8"?>
<svg width="15px" height="15px" viewBox="0 0 15 15" version="1.1" xmlns="http://www.w3.org/2000/svg" xmlns:xlink="http://www.w3.org/1999/xlink">
    <title>dribble</title>
    <g id="Page-1" stroke="none" stroke-width="1" fill="none" fill-rule="evenodd">
        <g id="Page-1440" transform="translate(-63.000000, -183.000000)" fill="#000000">
            <g id="Header" transform="translate(61.000000, 31.000000)">
                <g id="Folow-us" transform="translate(0.000000, 112.000000)">
                    <path d="M9.5,40 C5.35954531,40 2,43.3595453 2,47.5 C2,51.6404687 5.35954531,55 9.5,55 C13.6323125,55 17,51.6404687 17,47.5 C17,43.3595453 13.6323125,40 9.5,40 Z M14.4538906,43.4571578 C15.3486875,44.5471797 15.8855937,45.9381719 15.9018594,47.4430469 C15.6903594,47.4024062 13.5753594,46.97125 11.4441406,47.2397031 C11.3953437,47.1339531 11.3546562,47.0200469 11.3058594,46.9061875 C11.1756875,46.5970937 11.0292969,46.2798437 10.8828594,45.9788594 C13.2418437,45.019 14.3156094,43.6361172 14.4538906,43.4571578 Z M9.5,41.1062922 C11.1268906,41.1062922 12.6155,41.7163797 13.7462187,42.7169219 C13.6323125,42.8796109 12.6642969,44.1729953 10.3866406,45.0271094 C9.33729687,43.0992391 8.17409375,41.52115 7.995125,41.2771141 C8.47503125,41.1632313 8.97940625,41.1062922 9.5,41.1062922 Z M6.77496875,41.7082422 C6.94578125,41.9360078 8.08460937,43.5222344 9.15021875,45.4094219 C6.156725,46.206625 3.51301719,46.1903844 3.22830781,46.1903844 C3.64316563,44.2055312 4.98535625,42.5542281 6.77496875,41.7082422 Z M3.09002187,47.5081562 C3.09002187,47.4430469 3.09002187,47.3779844 3.09002187,47.3129219 C3.36659375,47.3210312 6.47397031,47.3617188 9.6708125,46.4018594 C9.8579375,46.75975 10.02875,47.1257969 10.1914531,47.4918438 C10.1100781,47.5162656 10.0205937,47.5406875 9.93926563,47.5650625 C6.63665938,48.6306719 4.87961094,51.5428281 4.7331875,51.7868594 C3.716375,50.6561875 3.09002187,49.1513125 3.09002187,47.5081562 Z M9.5,53.9099687 C8.0195,53.9099687 6.65292969,53.4056406 5.57104063,52.5596406 C5.68492344,52.3237656 6.98642188,49.8183437 10.5981406,48.5575 C10.6144063,48.5493437 10.6225625,48.5493437 10.6388281,48.5412344 C11.5417344,50.8757969 11.9078281,52.8362031 12.0054219,53.3974844 C11.2326406,53.731 10.3866406,53.9099687 9.5,53.9099687 Z M13.0710313,52.8118281 C13.0059688,52.4213594 12.6642969,50.5504375 11.8264531,48.2483594 C13.8357031,47.9311094 15.5927188,48.45175 15.812375,48.5249687 C15.5358125,50.3064062 14.5108438,51.8438125 13.0710313,52.8118281 Z" id="Shape"></path>
                </g>
            </g>
        </g>
    </g>
</svg>