<?xml version="1.0" encoding="UTF-8"?>
<svg width="15px" height="15px" viewBox="0 0 15 15" version="1.1" xmlns="http://www.w3.org/2000/svg" xmlns:xlink="http://www.w3.org/1999/xlink">
    <title>facebock</title>
    <g id="Page-1" stroke="none" stroke-width="1" fill="none" fill-rule="evenodd">
        <g id="Page-1440" transform="translate(-63.000000, -212.000000)" fill="#000000" fill-rule="nonzero">
            <g id="Header" transform="translate(61.000000, 31.000000)">
                <g id="Folow-us" transform="translate(0.000000, 112.000000)">
                    <path d="M16.1725,69 L2.8275,69 C2.370625,69 2,69.370625 2,69.8275 L2,83.1725 C2,83.63 2.370625,84 2.8275,84 L10.01125,84 L10.01125,78.19125 L8.055625,78.19125 L8.055625,75.928125 L10.01125,75.928125 L10.01125,74.25625 C10.01125,72.319375 11.195,71.265625 12.923125,71.265625 C13.75125,71.265625 14.463125,71.32625 14.670625,71.35375 L14.670625,73.37875 L13.47,73.37875 C12.5325,73.37875 12.35,73.829375 12.35,74.485625 L12.35,75.93 L14.59,75.93 L14.299375,78.19875 L12.35,78.19875 L12.35,84 L16.171875,84 C16.63,84 17,83.63 17,83.1725 L17,69.8275 C17,69.370625 16.63,69 16.1725,69" id="Facebock"></path>
                </g>
            </g>
        </g>
    </g>
</svg>