<?xml version="1.0" encoding="UTF-8"?>
<svg width="17px" height="17px" viewBox="0 0 17 17" version="1.1" xmlns="http://www.w3.org/2000/svg" xmlns:xlink="http://www.w3.org/1999/xlink">
    <title>Instagram-white</title>
    <g id="Page-1" stroke="none" stroke-width="1" fill="none" fill-rule="evenodd">
        <g id="Group" transform="translate(-67.000000, -236.000000)" fill="#FFFFFF">
            <g id="Header" transform="translate(66.000000, 26.000000)">
                <g id="Folow-us" transform="translate(0.000000, 112.000000)">
                    <g id="Instagram-2" transform="translate(1.000000, 98.000000)">
                        <path d="M8.5,0 C6.1911875,0 5.9021875,0.010625 4.995875,0.051 C4.090625,0.0935 3.474375,0.235875 2.9325,0.44625 C2.373625,0.663 1.8986875,0.954125 1.4269375,1.4269375 C0.954125,1.8986875 0.6619375,2.3725625 0.44625,2.9325 C0.235875,3.474375 0.0924375,4.090625 0.051,4.995875 C0.0085,5.9021875 0,6.1911875 0,8.5 C0,10.8088125 0.010625,11.0978125 0.051,12.004125 C0.0935,12.909375 0.235875,13.5266875 0.44625,14.0675 C0.663,14.626375 0.954125,15.1013125 1.4269375,15.5730625 C1.8986875,16.045875 2.3725625,16.3380625 2.9325,16.55375 C3.474375,16.764125 4.090625,16.9075625 4.995875,16.949 C5.9021875,16.9915 6.1911875,17 8.5,17 C10.8088125,17 11.0978125,16.989375 12.004125,16.949 C12.909375,16.9065 13.5266875,16.764125 14.0675,16.55375 C14.626375,16.337 15.1013125,16.045875 15.5730625,15.5730625 C16.045875,15.1013125 16.3380625,14.6274375 16.55375,14.0675 C16.764125,13.525625 16.9075625,12.909375 16.949,12.004125 C16.9915,11.0978125 17,10.8088125 17,8.5 C17,6.1911875 16.989375,5.9021875 16.949,4.995875 C16.9065,4.090625 16.764125,3.4733125 16.55375,2.9325 C16.337,2.373625 16.045875,1.8986875 15.5730625,1.4269375 C15.1013125,0.954125 14.6274375,0.6619375 14.0675,0.44625 C13.525625,0.235875 12.909375,0.0924375 12.004125,0.051 C11.0978125,0.0085 10.8088125,0 8.5,0 Z M8.5,1.53 C10.7695,1.53 11.039375,1.540625 11.9350625,1.581 C12.7638125,1.61925 13.21325,1.757375 13.512875,1.87425 C13.91025,2.0283125 14.192875,2.212125 14.490375,2.509625 C14.787875,2.807125 14.9716875,3.08975 15.12575,3.487125 C15.242625,3.78675 15.38075,4.2361875 15.419,5.0649375 C15.459375,5.9616875 15.4689375,6.2305 15.4689375,8.5 C15.4689375,10.7695 15.4583125,11.039375 15.4179375,11.9350625 C15.3796875,12.7638125 15.2415625,13.21325 15.1246875,13.512875 C14.970625,13.91025 14.7868125,14.192875 14.4893125,14.490375 C14.1918125,14.787875 13.9091875,14.9716875 13.5118125,15.12575 C13.2121875,15.242625 12.76275,15.38075 11.934,15.419 C11.03725,15.459375 10.7684375,15.4689375 8.4989375,15.4689375 C6.2294375,15.4689375 5.9595625,15.4583125 5.063875,15.4179375 C4.235125,15.3796875 3.7856875,15.2415625 3.4860625,15.1246875 C3.0886875,14.970625 2.8060625,14.7868125 2.5085625,14.4893125 C2.2110625,14.1918125 2.02725,13.9091875 1.8731875,13.5118125 C1.7563125,13.2121875 1.6181875,12.76275 1.5799375,11.934 C1.540625,11.039375 1.53,10.7695 1.53,8.5 C1.53,6.2305 1.540625,5.960625 1.581,5.0649375 C1.61925,4.2361875 1.757375,3.78675 1.87425,3.487125 C2.0283125,3.08975 2.212125,2.807125 2.509625,2.509625 C2.807125,2.212125 3.08975,2.0283125 3.487125,1.87425 C3.78675,1.757375 4.2361875,1.61925 5.0649375,1.581 C5.960625,1.540625 6.2305,1.53 8.5,1.53 Z M8.5,4.13525 C6.088125,4.13525 4.13525,6.09025 4.13525,8.5 C4.13525,10.911875 6.09025,12.86475 8.5,12.86475 C10.911875,12.86475 12.86475,10.90975 12.86475,8.5 C12.86475,6.088125 10.90975,4.13525 8.5,4.13525 Z M8.5,11.3336875 C6.9349375,11.3336875 5.6663125,10.0650625 5.6663125,8.5 C5.6663125,6.9349375 6.9349375,5.6663125 8.5,5.6663125 C10.0650625,5.6663125 11.3336875,6.9349375 11.3336875,8.5 C11.3336875,10.0650625 10.0650625,11.3336875 8.5,11.3336875 Z M14.056875,3.963125 C14.056875,4.52625 13.6,4.983125 13.036875,4.983125 C12.47375,4.983125 12.016875,4.52625 12.016875,3.963125 C12.016875,3.4 12.47375,2.943125 13.036875,2.943125 C13.6,2.943125 14.056875,3.4 14.056875,3.963125 Z" id="Instagram"></path>
                    </g>
                </g>
            </g>
        </g>
    </g>
</svg>