<svg version="1.1" xmlns="http://www.w3.org/2000/svg" xmlns:xlink="http://www.w3.org/1999/xlink" style="display: none;">
    <defs>
        <g id="logo" stroke="none" stroke-width="1" fill="none" fill-rule="evenodd">
            <g id="Page-1440" transform="translate(-133.000000, -31.000000)" fill="current">
                <g id="Header" transform="translate(60.000000, 31.000000)">
                    <g id="dot-news-dot-news" transform="translate(73.000000, 0.000000)">
                        <path d="M29.292211,48.5878805 C29.7009209,48.5316695 30.0602706,48.6300398 30.3702601,48.8829916 C30.6802496,49.1359434 30.8641361,49.4724905 30.9219195,49.8926328 C30.9797029,50.3127751 30.8934978,50.6864686 30.6633044,51.0137133 C30.433111,51.3409581 30.1136593,51.5326859 29.7049495,51.588897 L28.534553,51.749865 L28.1218146,48.7488485 L29.292211,48.5878805 Z M29.6530623,51.2116264 C29.9588802,51.1695663 30.1942243,51.0279923 30.3590945,50.7869043 C30.5239647,50.5458162 30.5843871,50.265218 30.5403617,49.9451095 C30.4963362,49.6250011 30.3624071,49.3711326 30.1385742,49.183504 C29.9147413,48.9958754 29.649916,48.9230911 29.3440981,48.9651511 L28.5724082,49.0712839 L28.8813724,51.3177591 L29.6530623,51.2116264 Z" id="Shape" fill-rule="nonzero"></path>
                        <path d="M35.6779309,49.5544897 C35.4947069,49.9439948 35.1964563,50.2120683 34.7831792,50.3587103 C34.3699021,50.5053523 33.9693881,50.4852194 33.5816371,50.2983117 C33.1938862,50.1114041 32.9271721,49.8126711 32.7814949,49.4021129 C32.6348529,48.9888358 32.6533851,48.5881244 32.8370915,48.1999788 C33.0207979,47.8118331 33.3192896,47.5444393 33.7325667,47.3977973 C34.1458439,47.2511554 34.5467964,47.2703673 34.9354245,47.4554332 C35.3240525,47.640499 35.5916875,47.9396705 35.7383295,48.3529476 C35.8840067,48.7635058 35.8638738,49.1640198 35.6779309,49.5544897 Z M33.7514854,49.948757 C34.0388123,50.085583 34.3388141,50.0985228 34.6514909,49.9875766 C34.9641676,49.8766304 35.1879981,49.6770553 35.3229822,49.3888513 C35.4579662,49.1006473 35.4699852,48.8002069 35.359039,48.4875302 C35.247128,48.1721345 35.0479476,47.9451028 34.7614978,47.806435 C34.475048,47.6677672 34.1754847,47.6539064 33.862808,47.7648527 C33.5501312,47.8757989 33.3263008,48.075374 33.1913167,48.363578 C33.0563326,48.651782 33.044796,48.9535818 33.156707,49.2689775 C33.2676532,49.5816542 33.4659127,49.8082474 33.7514854,49.948757 Z" id="Shape" fill-rule="nonzero"></path>
                        <polygon id="Path" fill-rule="nonzero" points="38.4053404 45.1964904 38.595796 45.5262662 37.8200734 45.9742698 39.1446059 48.2677104 38.7998403 48.4668231 37.4753079 46.1733825 36.7033327 46.6192219 36.5128771 46.2894461"></polygon>
                        <polygon id="Path" fill-rule="nonzero" points="43.1793889 41.0636601 43.4588365 40.7740349 45.6388114 42.8774042 45.4134504 43.1109729 42.702965 42.6605855 44.3317177 44.2321029 44.05227 44.5217281 41.8722951 42.4183588 42.0976561 42.1847901 44.8050273 42.6321727"></polygon>
                        <polygon id="Path" fill-rule="nonzero" points="47.097145 40.2999639 47.8801007 39.1316028 48.196457 39.3436031 47.1894554 40.8462952 44.6729853 39.1599289 45.6679414 37.6752116 45.9842977 37.8872119 45.2133873 39.0375983 45.9863032 39.5555536 46.6969861 38.4950412 47.0097474 38.7046324 46.2990644 39.7651448"></polygon>
                        <polygon id="Path" fill-rule="nonzero" points="49.5541761 36.6122157 46.4196691 36.2836935 46.578568 35.8904892 49.1490731 36.1824595 47.1136358 34.566434 47.266049 34.1892788 49.8527683 34.4411262 47.8011168 32.8652236 47.9600157 32.4720193 50.4427129 34.4134815 50.2675998 34.8468087 47.7555751 34.6064763 49.7292892 36.1788885"></polygon>
                        <path d="M51.5507138,30.4703818 C51.4994701,30.7484307 51.3904213,30.9740224 51.2235673,31.147157 C51.0567134,31.3202916 50.8524765,31.4256643 50.6108568,31.4632752 L50.4778351,31.0867274 C50.8596024,31.0368085 51.0886574,30.804731 51.1650001,30.390495 C51.2026486,30.1862141 51.1895586,30.0224536 51.1257302,29.8992133 C51.0619019,29.775973 50.9604755,29.701542 50.821451,29.6759201 C50.6795893,29.6497753 50.5632581,29.6840742 50.4724572,29.7788167 C50.3816564,29.8735592 50.2732658,30.0398668 50.1472856,30.2777395 C50.084557,30.3952573 50.0351211,30.484422 49.998978,30.5452338 C49.962835,30.6060456 49.9109177,30.6808184 49.8432262,30.7695523 C49.7755348,30.8582862 49.711,30.9219328 49.649622,30.9604922 C49.5882439,30.9990516 49.5114669,31.0296392 49.4192908,31.052255 C49.3271147,31.0748708 49.2271192,31.0762437 49.1193043,31.0563737 C48.8611161,31.0087903 48.6728586,30.8802196 48.5545319,30.6706618 C48.4362052,30.4611039 48.401095,30.2258123 48.4492014,29.9647868 C48.4926017,29.7292964 48.5899627,29.5352871 48.7412846,29.3827588 C48.8926065,29.2302306 49.0742568,29.1280292 49.2862357,29.0761547 L49.4165702,29.4434065 C49.0866187,29.5146093 48.8918379,29.711933 48.8322279,30.0353776 C48.8024229,30.1971 48.818091,30.3349332 48.8792322,30.4488775 C48.9403734,30.5628217 49.0390376,30.6323433 49.1752248,30.6574423 C49.3057375,30.6814954 49.4136685,30.6529824 49.4990176,30.5719032 C49.5843668,30.490824 49.6851026,30.342174 49.8012252,30.1259534 C49.8419243,30.0483797 49.8710856,29.9936152 49.8887093,29.96166 C49.906333,29.9297048 49.9359979,29.8801669 49.9777041,29.8130464 C50.0194102,29.7459259 50.0519124,29.6969109 50.0752105,29.6660015 C50.0985087,29.6350921 50.1311222,29.5934316 50.1730511,29.5410202 C50.21498,29.4886088 50.2527451,29.4508313 50.2863464,29.427688 C50.3199477,29.4045446 50.3608478,29.3776125 50.4090468,29.3468919 C50.4572458,29.3161712 50.5041932,29.2962209 50.5498891,29.2870409 C50.595585,29.2778609 50.6472724,29.2719854 50.7049515,29.2694143 C50.7626306,29.2668432 50.8226797,29.2713095 50.8850988,29.2828132 C51.1461243,29.3309195 51.3364347,29.4642689 51.4560299,29.6828614 C51.5756252,29.9014538 51.6071865,30.1639606 51.5507138,30.4703818 Z" id="Path" fill-rule="nonzero"></path>
                        <path d="M48.6930277,23.2145515 C48.6482699,22.8044294 48.7566525,22.4479716 49.0181754,22.1451781 C49.2796984,21.8423847 49.6212569,21.6679831 50.042851,21.6219733 C50.4644451,21.5759636 50.8355814,21.6725867 51.1562598,21.9118429 C51.4769382,22.151099 51.6596563,22.4757881 51.7044141,22.8859103 L51.8325842,24.0603509 L48.8211978,24.3889922 L48.6930277,23.2145515 Z M51.3258398,22.9272252 C51.2923497,22.6203505 51.1574134,22.3811389 50.9210309,22.2095901 C50.6846485,22.0380414 50.40585,21.9697945 50.0846354,22.0048496 C49.7634209,22.0399047 49.5059058,22.166681 49.3120902,22.3851784 C49.1182746,22.6036759 49.0381119,22.866362 49.071602,23.1732366 L49.1561097,23.9475931 L51.4103475,23.7015817 L51.3258398,22.9272252 Z" id="Shape" fill-rule="nonzero"></path>
                        <path d="M49.8376785,16.855896 C50.2218634,17.0500279 50.4814223,17.3557173 50.6163551,17.7729642 C50.7512879,18.1902111 50.719872,18.5899984 50.5221073,18.972326 C50.3243427,19.3546537 50.0182094,19.61284 49.6037076,19.7468851 C49.1864607,19.8818179 48.786431,19.8519964 48.4036186,19.6574207 C48.0208061,19.4628449 47.7619335,19.1569336 47.6270007,18.7396867 C47.4920679,18.3224398 47.5225756,17.9221882 47.7185239,17.5389319 C47.9144722,17.1556756 48.2210698,16.896581 48.6383167,16.7616482 C49.0528185,16.6276032 49.4526058,16.6590191 49.8376785,16.855896 Z M50.1774798,18.7926908 C50.3223515,18.5093354 50.3437437,18.2098176 50.2416564,17.8941374 C50.1395691,17.5784572 49.9463834,17.3490894 49.6620994,17.2060341 C49.3778154,17.0629788 49.0778332,17.0424948 48.762153,17.1445821 C48.4437277,17.2475571 48.2111711,17.440258 48.064483,17.7226847 C47.9177949,18.0051114 47.8954945,18.3041648 47.9975818,18.6198451 C48.0996691,18.9355253 48.2928548,19.1648931 48.5771388,19.3079484 C48.8614229,19.4510037 49.1627775,19.4710439 49.4812028,19.3680688 C49.796883,19.2659815 50.0289754,19.0741888 50.1774798,18.7926908 Z" id="Shape" fill-rule="nonzero"></path>
                        <polygon id="Path" fill-rule="nonzero" points="45.5595395 14.0146985 45.8944486 13.8334217 46.3208612 14.6212192 48.6500019 13.3605211 48.8395186 13.7106533 46.5103779 14.9713515 46.9347306 15.7553433 46.5998215 15.9366201"></polygon>
                        <polygon id="Path" fill-rule="nonzero" points="41.5574775 9.12188362 41.2756654 8.83455854 43.4383273 6.71339222 43.6655951 6.945106 43.1406633 9.64214638 44.7564807 8.05733212 45.0382928 8.3446572 42.8756309 10.4658235 42.6483631 10.2341097 43.1702054 7.54009959"></polygon>
                        <polygon id="Path" fill-rule="nonzero" points="40.9032665 5.18483089 39.7573948 4.36931542 39.9782113 4.05904862 41.4519786 5.10792697 39.6954838 7.57595835 38.2393453 6.53962639 38.4601618 6.22935959 39.5884047 7.03232866 40.1278995 6.27429045 39.0878006 5.53405334 39.3061078 5.22731229 40.3462067 5.96754941"></polygon>
                        <polygon id="Path" fill-rule="nonzero" points="37.2897513 2.62926081 36.8749201 5.75351689 36.4862469 5.5838358 36.8489878 3.02235925 35.1774496 5.01246071 34.8046407 4.84970538 35.1277211 2.27091443 33.4958434 4.27833028 33.1071703 4.10864919 35.1163546 1.68043187 35.5446883 1.86742736 35.2351782 4.37186965 36.8614177 2.44226533"></polygon>
                        <path d="M31.2039296,0.459099896 C31.480423,0.518162978 31.7028504,0.633529137 31.8712116,0.805198374 C32.0395728,0.97686761 32.139145,1.1839943 32.1699284,1.42657844 L31.7897797,1.5489303 C31.7506448,1.16590723 31.5251179,0.930399725 31.113199,0.842407786 C30.9100609,0.7990145 30.7459964,0.807481945 30.6210055,0.867810119 C30.4960145,0.928138293 30.4187533,1.02742575 30.3892217,1.1656725 C30.3590875,1.30674061 30.3900927,1.4239927 30.4822374,1.51742877 C30.574382,1.61086484 30.7375674,1.7239014 30.9717934,1.85653847 C31.0874958,1.92255566 31.1752312,1.97448591 31.2349997,2.01232924 C31.2947683,2.05017256 31.3680475,2.10417745 31.4548375,2.1743439 C31.5416276,2.24451036 31.6034293,2.310814 31.6402428,2.37325484 C31.6770563,2.43569568 31.705467,2.51330465 31.7254748,2.60608176 C31.7454827,2.69885887 31.7440356,2.7988533 31.7211336,2.90606507 C31.6662893,3.16280903 31.5324618,3.34736655 31.319651,3.45973762 C31.1068402,3.57210869 30.8706521,3.60057073 30.6110868,3.54512376 C30.3769137,3.49510094 30.1857267,3.39230838 30.0375256,3.23674607 C29.8893246,3.08118376 29.7922856,2.896724 29.7464086,2.68336678 L30.1171892,2.56343892 C30.1790605,2.89526684 30.3708139,3.09553382 30.6924492,3.16423986 C30.8532668,3.19859288 30.9914871,3.18681729 31.1071099,3.12891311 C31.2227328,3.07100892 31.2950086,2.97434414 31.3239375,2.83891875 C31.3516609,2.70913609 31.3262024,2.60044412 31.2475619,2.51284283 C31.1689214,2.42524155 31.0231708,2.32035448 30.8103103,2.19818162 C30.733915,2.1553115 30.6799945,2.12461762 30.6485489,2.10609995 C30.6171033,2.08758229 30.5684215,2.05653242 30.5025036,2.01295034 C30.4365857,1.96936827 30.3885067,1.93549703 30.3582664,1.91133665 C30.3280262,1.88717626 30.2873019,1.85340106 30.2360935,1.81001104 C30.1848851,1.76662102 30.1481875,1.72780578 30.1260007,1.69356531 C30.1038139,1.65932485 30.0780458,1.61768162 30.0486964,1.56863562 C30.0193469,1.51958963 30.0007282,1.47209836 29.9928403,1.42616182 C29.9849524,1.38022528 29.9805365,1.32839269 29.9795928,1.27066405 C29.978649,1.2129354 29.9848066,1.1530361 29.9980657,1.09096613 C30.0535127,0.831400802 30.1921749,0.644925951 30.4140525,0.531541572 C30.6359301,0.418157193 30.8992224,0.394009968 31.2039296,0.459099896 Z" id="Path" fill-rule="nonzero"></path>
                        <path d="M23.8746117,3.11462747 C23.4633966,3.1478774 23.1101153,3.02955056 22.8147677,2.75964695 C22.5194202,2.48974334 22.3546564,2.14343271 22.3204764,1.72071507 C22.2862964,1.29799742 22.3932797,0.929713938 22.6414263,0.615864611 C22.8895729,0.302015284 23.2192537,0.128465653 23.6304689,0.0952157194 L24.8080394,0 L25.0521823,3.01941175 L23.8746117,3.11462747 Z M23.6611611,0.474798911 C23.3534687,0.499678232 23.1105704,0.627859605 22.9324663,0.85934303 C22.7543622,1.09082645 22.6783312,1.36760346 22.7043731,1.68967405 C22.730415,2.01174463 22.8499267,2.27271048 23.0629084,2.47257159 C23.27589,2.6724327 23.536227,2.7599236 23.8439195,2.73504428 L24.6203396,2.67226468 L24.4375813,0.412019315 L23.6611611,0.474798911 Z" id="Shape" fill-rule="nonzero"></path>
                        <path d="M17.5469521,1.79341834 C17.7517253,1.41479822 18.0645362,1.1638676 18.4853847,1.04062649 C18.9062332,0.917385379 19.3049885,0.959941218 19.6816507,1.16829401 C20.0583129,1.3766468 20.3078591,1.68986308 20.4302894,2.10794284 C20.5535306,2.52879134 20.5125618,2.92783347 20.3073831,3.30506921 C20.1022045,3.68230496 19.7891909,3.93254339 19.3683424,4.05578451 C18.9474939,4.17902562 18.5482491,4.13736467 18.1706079,3.93080164 C17.7929668,3.72423862 17.5425256,3.41053286 17.4192845,2.98968436 C17.2968542,2.57160459 17.3394101,2.17284926 17.5469521,1.79341834 Z M19.4924719,1.50777644 C19.2132681,1.35505686 18.9144636,1.32531789 18.5960584,1.41855952 C18.2776533,1.51180115 18.0429859,1.6985134 17.8920561,1.97869625 C17.7411262,2.2588791 17.7122822,2.55817309 17.8055238,2.8765782 C17.8995762,3.19775206 18.0857149,3.43559366 18.3639398,3.59010301 C18.6421647,3.74461236 18.9404797,3.77524622 19.2588848,3.68200459 C19.5772899,3.58876296 19.8119574,3.40205071 19.9628872,3.12186786 C20.113817,2.84168501 20.1422557,2.54100665 20.0482033,2.2198328 C19.9549617,1.90142768 19.7697179,1.66407556 19.4924719,1.50777644 Z" id="Shape" fill-rule="nonzero"></path>
                        <polygon id="Path" fill-rule="nonzero" points="14.5909307 5.98760474 14.4191271 5.6477387 15.2185847 5.24360971 14.0237686 2.87999587 14.379083 2.70038299 15.5738992 5.06399682 16.3694947 4.66182014 16.5412983 5.00168619"></polygon>
                        <polygon id="Path" fill-rule="nonzero" points="9.59079534 9.84977149 9.29581028 10.1235553 7.23507189 7.90323769 7.47296306 7.68244429 10.1545067 8.28153042 8.6148407 6.62263598 8.90982575 6.34885216 10.9705641 8.56916978 10.732673 8.78996318 8.05407328 8.19404893"></polygon>
                        <polygon id="Path" fill-rule="nonzero" points="5.63000281 10.4009173 4.7830545 11.5237556 4.47902441 11.2944281 5.56833024 9.85028519 7.98675135 11.6744816 6.9104755 13.10135 6.60644541 12.8720225 7.44036375 11.7664585 6.69756298 11.2061696 5.92879452 12.2253614 5.62821932 11.9986399 6.39698779 10.9794481"></polygon>
                        <polygon id="Path" fill-rule="nonzero" points="2.97212633 13.9465002 6.08341692 14.4494234 5.90282386 14.8331481 3.35261669 14.3981925 5.29470437 16.1252822 5.12148246 16.4933447 2.55284742 16.0975446 4.51336297 17.7854788 4.33276991 18.1692035 1.96227942 16.0922259 2.16130035 15.6693456 4.65599975 16.0494806 2.7731054 14.3693804"></polygon>
                        <path d="M0.635439656,19.9647128 C0.702254126,19.6899895 0.82382912,19.4708941 1.00016464,19.3074266 C1.17650015,19.1439592 1.38634482,19.0502505 1.62969864,19.0263005 L1.74131268,19.4097393 C1.35734063,19.4380885 1.11558464,19.656904 1.01604472,20.0661857 C0.966956537,20.2680233 0.97080729,20.4322611 1.02759698,20.558899 C1.08438667,20.6855369 1.18146235,20.7655594 1.31882404,20.7989667 C1.45898902,20.8330557 1.57706658,20.8053598 1.67305673,20.7158789 C1.76904687,20.626398 1.88662736,20.4664557 2.0257982,20.2360518 C2.09504273,20.1222516 2.14941949,20.0360111 2.18892849,19.9773303 C2.22843748,19.9186495 2.28448156,19.8469178 2.35706072,19.7621351 C2.42963989,19.6773525 2.49765513,19.6174395 2.56110643,19.5823964 C2.62455774,19.5473532 2.70293491,19.5211361 2.79623793,19.5037449 C2.88954096,19.4863538 2.98945517,19.4906121 3.09598055,19.5165197 C3.35108082,19.5785617 3.53180225,19.7175259 3.63814485,19.9334124 C3.74448744,20.1492988 3.76629684,20.3861938 3.70357305,20.6440974 C3.64698529,20.8767712 3.53885737,21.0649922 3.37918929,21.2087604 C3.21952122,21.3525286 3.03240574,21.4443424 2.81784288,21.4842018 L2.70838845,21.1101956 C3.04182492,21.0576794 3.24740464,20.8716332 3.3251276,20.552057 C3.36398907,20.3922689 3.35610477,20.2537722 3.30147469,20.1365669 C3.24684461,20.0193615 3.15225038,19.9443961 3.017692,19.9116707 C2.88874021,19.8803088 2.77937535,19.9027009 2.68959741,19.9788471 C2.59981946,20.0549933 2.4908755,20.1977368 2.3627655,20.4070778 C2.31776417,20.4822375 2.28556623,20.5352736 2.26617167,20.566186 C2.2467771,20.5970985 2.21437063,20.6448879 2.16895223,20.7095542 C2.12353384,20.7742206 2.08832406,20.8213282 2.0633229,20.8508771 C2.03832173,20.880426 2.00341476,20.9201845 1.95860196,20.9701526 C1.91378917,21.0201206 1.87395738,21.0557123 1.83910658,21.0769275 C1.80425578,21.0981427 1.76190444,21.1227296 1.71205256,21.1506884 C1.66220068,21.1786471 1.61420465,21.195923 1.56806447,21.2025161 C1.5219243,21.2091092 1.46998803,21.2120658 1.41225567,21.2113859 C1.35452332,21.2107061 1.29482085,21.2028665 1.23314825,21.1878674 C0.975244684,21.1251436 0.792742623,20.9812926 0.685642072,20.7563145 C0.578541521,20.5313364 0.561807382,20.2674692 0.635439656,19.9647128 Z" id="Path" fill-rule="nonzero"></path>
                        <path d="M3.08761774,27.3642099 C3.10948097,27.7761874 2.98142784,28.1260607 2.70345834,28.4138299 C2.42548885,28.701599 2.07475344,28.856721 1.65125213,28.8791958 C1.22775081,28.9016706 0.862567329,28.7845417 0.555701675,28.5278092 C0.24883602,28.2710766 0.0844715774,27.9367216 0.0626083456,27.5247442 L0,26.3449905 L3.02500939,26.1844563 L3.08761774,27.3642099 Z M0.44289524,27.5045627 C0.459254442,27.8128256 0.580668343,28.0591763 0.807136944,28.243615 C1.03360555,28.4280536 1.30817368,28.5117111 1.63084135,28.4945874 C1.95350902,28.4774638 2.21768065,28.3652159 2.42335625,28.1578438 C2.62903184,27.9504717 2.72369004,27.6926542 2.70733084,27.3843914 L2.66605061,26.6065318 L0.401615013,26.7267032 L0.44289524,27.5045627 Z" id="Shape" fill-rule="nonzero"></path>
                        <path d="M1.59077185,33.6586256 C1.21811386,33.4431927 0.976159172,33.1233885 0.864907771,32.6992129 C0.753656369,32.2750373 0.807508362,31.8776498 1.02646375,31.5070505 C1.24541914,31.1364513 1.56558933,30.8958919 1.98697432,30.7853724 C2.41114994,30.674121 2.80886909,30.7263947 3.18013176,30.9421935 C3.55139442,31.1579923 3.79265146,31.4779795 3.90390286,31.9021551 C4.01515426,32.3263308 3.9621829,32.7242329 3.74498879,33.0958615 C3.52779467,33.4674901 3.20710981,33.7089302 2.78293418,33.8201816 C2.36154919,33.930701 1.96416174,33.876849 1.59077185,33.6586256 Z M1.36044224,31.7057848 C1.19986271,31.9805434 1.16165817,32.2783838 1.24582864,32.5993062 C1.32999911,32.9202285 1.50997833,33.1600988 1.78576629,33.3189171 C2.06155425,33.4777354 2.3599094,33.5150593 2.68083175,33.4308888 C3.00454472,33.3459864 3.24757161,33.1666706 3.40991242,32.8929413 C3.57225323,32.6192121 3.6113384,32.3218863 3.52716793,32.000964 C3.44299746,31.6800416 3.26301825,31.4401713 2.98723029,31.281353 C2.71144233,31.1225348 2.41169186,31.0855768 2.08797888,31.1704792 C1.76705654,31.2546497 1.52454432,31.4330849 1.36044224,31.7057848 Z" id="Shape" fill-rule="nonzero"></path>
                        <polygon id="Path" fill-rule="nonzero" points="5.70473315 36.7364473 5.36016405 36.8986125 4.97870729 36.088092 2.58238584 37.2158772 2.4128495 36.8556459 4.80917094 35.7278607 4.42955696 34.9212557 4.77412606 34.7590905"></polygon>
                        <polygon id="Path" fill-rule="nonzero" points="9.4228841 41.8303454 9.68842772 42.1327695 7.41211724 44.131485 7.19796915 43.8875946 7.87078745 41.2235947 6.17005832 42.7169207 5.9045147 42.4144965 8.18082518 40.4157811 8.39497327 40.6596715 7.72540685 43.3208161"></polygon>
                        <polygon id="Path" fill-rule="nonzero" points="9.86454649 45.8049909 10.9635291 46.6826723 10.72588 46.980243 9.31241926 45.8514096 11.2028101 43.4843702 12.5993633 44.5997008 12.3617142 44.8972714 11.279639 44.0330928 10.699019 44.7601121 11.696557 45.5567767 11.4616085 45.8509659 10.4640704 45.0543012"></polygon>
                        <polygon id="Path" fill-rule="nonzero" points="13.3316539 48.5584337 13.9219887 45.4625387 14.3004759 45.6538655 13.7938813 48.1908135 15.5749736 46.2981291 15.9380123 46.4816466 15.4700389 49.0381177 17.21251 47.1259102 17.5909971 47.317237 15.4480924 49.6283018 15.0309841 49.4174519 15.4812167 46.934446 13.7487622 48.7692836"></polygon>
                        <path d="M19.2780284,51.0616705 C19.0052864,50.9871797 18.7896858,50.8595096 18.6312266,50.6786601 C18.4727675,50.4978107 18.3849792,50.2854211 18.3678617,50.0414915 L18.7542792,49.9406721 C18.7718515,50.325288 18.9838027,50.573084 19.3901327,50.6840601 C19.5905146,50.738788 19.7547957,50.7395436 19.8829761,50.6863269 C20.0111565,50.6331102 20.0938694,50.5383163 20.1311148,50.4019453 C20.1691203,50.2627912 20.1447458,50.1439835 20.0579915,50.0455223 C19.9712371,49.947061 19.8146543,49.8250424 19.5882431,49.6794662 C19.476429,49.6070582 19.391747,49.5502849 19.3341971,49.5091461 C19.2766471,49.4680074 19.206515,49.4099742 19.1238006,49.3350464 C19.0410861,49.2601187 18.9831038,49.1904504 18.9498534,49.1260415 C18.9166031,49.0616326 18.8925937,48.9825512 18.8778254,48.8887972 C18.8630571,48.7950433 18.8701151,48.6952877 18.8989993,48.5895306 C18.9681693,48.3362702 19.1121459,48.159516 19.330929,48.0592682 C19.5497122,47.9590203 19.7871255,47.9438615 20.0431691,48.0137916 C20.2741649,48.0768808 20.4592803,48.1902435 20.5985152,48.3538797 C20.7377501,48.5175159 20.8242815,48.7071321 20.8581095,48.9227281 L20.4811814,49.0216533 C20.4380346,48.6868755 20.2578256,48.4761603 19.9405542,48.3895077 C19.7819185,48.3461814 19.6432552,48.3501795 19.5245642,48.4015019 C19.4058733,48.4528244 19.3282852,48.5452796 19.2917999,48.6788675 C19.2568348,48.8068893 19.2761518,48.916839 19.3497509,49.0087166 C19.4233499,49.1005942 19.5629828,49.2134975 19.7686496,49.3474266 C19.842518,49.3945175 19.8946305,49.4281898 19.924987,49.4484435 C19.9553436,49.4686971 20.0022056,49.5024308 20.0655731,49.5496444 C20.1289406,49.596858 20.1750425,49.6333747 20.2038788,49.6591946 C20.2327151,49.6850144 20.2714793,49.7210224 20.3201712,49.7672185 C20.3688632,49.8134147 20.4033241,49.8542287 20.4235538,49.8896607 C20.4437835,49.9250926 20.4671734,49.9681166 20.4937234,50.0187328 C20.5202734,50.069349 20.5361968,50.1178105 20.5414936,50.1641174 C20.5467905,50.2104243 20.5482898,50.262423 20.5459915,50.3201136 C20.5436932,50.3778042 20.5341828,50.4372634 20.5174604,50.4984912 C20.4475303,50.7545348 20.298619,50.9329319 20.0707265,51.0336825 C19.8428339,51.134433 19.5786013,51.1437624 19.2780284,51.0616705 Z" id="Path" fill-rule="nonzero"></path>
                        <circle id="Oval" cx="25.9651379" cy="25.9651379" r="18.0313458"></circle>
                    </g>
                </g>
            </g>
        </g>
        <g id="icon-play">
            <path class="path1" d="M30.662 5.003c-4.488-0.645-9.448-1.003-14.662-1.003-5.214 0-10.174 0.358-14.662 1.003-0.86 3.366-1.338 7.086-1.338 10.997 0 3.911 0.477 7.63 1.338 10.997 4.489 0.645 9.448 1.003 14.662 1.003 5.214 0 10.174-0.358 14.662-1.003 0.86-3.366 1.338-7.086 1.338-10.997 0-3.911-0.477-7.63-1.338-10.997zM12 22v-12l10 6-10 6z"></path>
        </g>
        <g id="icon-cart">
            <path class="path1" d="M30.549 6.077c-1.062-0.303-2.169 0.312-2.473 1.374l-0.157 0.549h-18.654l-0.281-2.248c-0.125-1.001-0.976-1.752-1.985-1.752h-5c-1.105 0-2 0.895-2 2s0.895 2 2 2h3.234l1.781 14.248c0.125 1.001 0.976 1.752 1.985 1.752h17c0.893 0 1.678-0.592 1.923-1.451l4-14c0.303-1.062-0.312-2.169-1.374-2.473zM16 16v-2h4v2h-4zM20 18v2h-4v-2h4zM16 12v-2h4v2h-4zM9.516 10h4.484v2h-4.234l-0.25-2zM10.016 14h3.984v2h-3.734l-0.25-2zM10.516 18h3.484v2h-3.234l-0.25-2zM24.491 20h-2.491v-2h3.063l-0.571 2zM25.634 16h-3.634v-2h4.206l-0.571 2zM26.777 12h-4.777v-2h5.349l-0.571 2zM8 29c0-1.657 1.343-3 3-3s3 1.343 3 3c0 1.657-1.343 3-3 3-1.657 0-3-1.343-3-3zM20 29c0-1.657 1.343-3 3-3s3 1.343 3 3c0 1.657-1.343 3-3 3-1.657 0-3-1.343-3-3z"></path>
        </g>
        <g id="icon-phone">
            <path class="path1" d="M22 20c-2 2-2 4-4 4s-4-2-6-4-4-4-4-6 2-2 4-4-4-8-6-8-6 6-6 6c0 4 4.109 12.109 8 16s12 8 16 8c0 0 6-4 6-6s-6-8-8-6z"></path>
        </g>
    </defs>
</svg>