<?xml version="1.0" encoding="UTF-8"?>
<svg width="17px" height="14px" viewBox="0 0 17 14" version="1.1" xmlns="http://www.w3.org/2000/svg" xmlns:xlink="http://www.w3.org/1999/xlink">
    <title>twitter-white</title>
    <g id="Page-1" stroke="none" stroke-width="1" fill="none" fill-rule="evenodd">
        <g id="Group" transform="translate(-66.000000, -268.000000)" fill="#FFFFFF" fill-rule="nonzero">
            <g id="Header" transform="translate(66.000000, 26.000000)">
                <g id="Folow-us" transform="translate(0.000000, 112.000000)">
                    <path d="M16.9677078,130.645487 C16.340822,130.921033 15.6714355,131.108745 14.9666318,131.194454 C15.6848941,130.761655 16.2374036,130.079519 16.4987831,129.26563 C15.8251465,129.658761 15.0785504,129.944933 14.2837867,130.104311 C13.6491092,129.425007 12.744552,129 11.7401181,129 C9.81554339,129 8.25505829,130.560485 8.25505829,132.482935 C8.25505829,132.759189 8.28693384,133.024819 8.34501817,133.279115 C5.44788513,133.142404 2.88013274,131.751214 1.1616866,129.648136 C0.859223074,130.159562 0.689928503,130.753863 0.689928503,131.401291 C0.689928503,132.612562 1.30618908,133.677205 2.23978843,134.302674 C1.66815362,134.284257 1.1305194,134.127005 0.661594684,133.866333 L0.661594684,133.909543 C0.661594684,135.598947 1.86082359,137.007846 3.45672597,137.328726 C3.16417928,137.407353 2.85534065,137.449853 2.53871022,137.449853 C2.31628974,137.449853 2.10307775,137.428603 1.88986576,137.388936 C2.33683176,138.772334 3.62177047,139.781018 5.15108837,139.809352 C3.96106796,140.74366 2.45300042,141.300419 0.828764218,141.300419 C0.552509479,141.300419 0.276963085,141.284127 0,141.25296 C1.55056827,142.240394 3.37739128,142.817695 5.35296683,142.817695 C11.7663269,142.817695 15.2690953,137.507938 15.2690953,132.910775 C15.2690953,132.762731 15.2690953,132.61327 15.2584701,132.464518 C15.9391901,131.976468 16.533492,131.359499 17.001,130.659653 L16.9677078,130.645487 Z" id="Twitter"></path>
                </g>
            </g>
        </g>
    </g>
</svg>