<?xml version="1.0" standalone="no"?>
<!DOCTYPE svg PUBLIC "-//W3C//DTD SVG 20010904//EN"
 "http://www.w3.org/TR/2001/REC-SVG-20010904/DTD/svg10.dtd">
<svg version="1.0" xmlns="http://www.w3.org/2000/svg"
 width="700.000000pt" height="700.000000pt" viewBox="0 0 700.000000 700.000000"
 preserveAspectRatio="xMidYMid meet">
<metadata>
Created by potrace 1.14, written by Peter Selinger 2001-2017
</metadata>
<g transform="translate(0.000000,700.000000) scale(0.100000,-0.100000)"
fill="#000000" stroke="none">
<path d="M3210 6989 c-98 -9 -138 -32 -178 -99 -27 -45 -33 -102 -18 -161 16
-61 50 -103 106 -130 38 -18 55 -20 115 -15 38 3 85 6 103 6 l33 0 -5 73 c-9
130 -18 241 -21 272 -2 17 -4 37 -4 46 -1 18 -15 19 -131 8z m81 -61 c1 -7 2
-24 4 -38 1 -14 6 -72 10 -130 4 -58 9 -108 12 -112 2 -5 -6 -8 -19 -9 -13 -1
-49 -3 -80 -4 -46 -3 -64 1 -90 18 -105 72 -89 243 26 276 48 14 136 13 137
-1z"/>
<path d="M4095 6928 c-30 -18 -40 -30 -52 -63 -18 -54 3 -93 77 -142 91 -61
103 -74 94 -107 -16 -67 -127 -52 -155 21 -7 19 -11 20 -33 10 l-24 -12 19
-37 c60 -117 249 -93 249 32 0 46 -20 70 -100 120 -30 19 -60 41 -67 50 -36
45 8 97 73 87 48 -8 81 -31 97 -66 10 -25 15 -28 35 -20 26 10 24 34 -7 76
-37 52 -155 80 -206 51z"/>
<path d="M2476 6855 c-99 -35 -156 -146 -132 -255 19 -83 114 -154 203 -152
129 2 216 97 208 224 -8 141 -145 231 -279 183z m160 -68 c55 -36 85 -128 61
-187 -39 -94 -166 -133 -239 -73 -43 36 -46 40 -59 87 -16 58 -3 112 37 151
57 57 133 65 200 22z"/>
<path d="M4604 6624 c-66 -81 -125 -153 -133 -161 -12 -13 -12 -16 0 -24 29
-18 46 -6 131 99 47 59 95 118 107 131 l20 23 -4 -33 c-2 -19 -11 -86 -20
-149 -20 -155 -20 -167 7 -176 17 -5 29 2 57 33 53 60 81 92 130 153 25 30 48
59 53 64 8 10 4 -32 -12 -134 -5 -30 -12 -80 -15 -110 -3 -30 -8 -63 -11 -72
-6 -19 33 -45 46 -31 4 4 11 33 14 63 4 30 8 66 10 80 3 14 7 48 11 75 3 28
10 79 15 115 5 36 10 68 10 71 0 3 -12 11 -27 18 -31 14 -22 21 -124 -99 -26
-30 -66 -77 -89 -105 -24 -27 -40 -41 -37 -30 3 11 8 47 12 80 4 32 8 66 10
75 2 8 6 49 10 92 7 70 6 77 -13 87 -11 6 -25 11 -30 11 -5 0 -63 -66 -128
-146z"/>
<path d="M1901 6621 c-11 -7 -7 -23 24 -83 21 -40 57 -111 81 -158 l42 -85
-49 -25 c-48 -24 -65 -54 -36 -66 7 -2 70 24 139 59 128 65 131 69 103 105 -2
2 -26 -9 -55 -23 -29 -14 -53 -25 -55 -23 -1 2 -37 72 -79 156 -42 83 -82 152
-89 152 -6 0 -18 -4 -26 -9z"/>
<path d="M5366 6432 c-15 -18 -13 -21 46 -63 94 -65 93 -64 69 -102 -49 -75
-42 -74 -115 -23 -36 25 -69 46 -74 46 -4 0 -12 -8 -18 -18 -10 -16 -3 -24 57
-66 43 -29 67 -52 63 -59 -4 -7 -21 -31 -37 -53 l-29 -42 -71 53 c-39 29 -76
51 -83 48 -19 -7 -27 -36 -12 -44 7 -4 51 -35 97 -68 l85 -60 33 47 c62 87
138 193 171 237 l32 44 -57 42 c-32 24 -75 55 -95 71 -44 33 -41 33 -62 10z"/>
<path d="M1177 6123 c-14 -17 -8 -26 83 -123 55 -58 96 -106 92 -107 -4 -2
-85 15 -180 36 -169 37 -173 37 -183 18 -9 -16 -3 -27 39 -71 65 -67 95 -99
165 -176 56 -62 58 -63 77 -45 20 18 19 18 -17 59 -20 23 -65 71 -100 109 -35
37 -57 67 -49 67 9 0 54 -9 101 -20 221 -52 265 -56 265 -26 0 6 -32 45 -71
86 -38 41 -97 105 -131 143 -33 37 -64 67 -68 67 -4 0 -14 -8 -23 -17z"/>
<path d="M5699 5951 c-123 -121 -141 -142 -129 -155 7 -9 18 -16 24 -16 6 0
56 45 111 100 54 54 100 98 102 96 2 -1 -12 -81 -32 -177 -33 -165 -34 -175
-17 -191 16 -16 25 -8 160 125 140 139 142 142 125 163 -17 21 -17 21 -122
-82 -58 -57 -106 -102 -108 -100 -1 1 13 81 31 177 32 166 33 199 6 199 -5 0
-72 -63 -151 -139z"/>
<path d="M3289 5926 c-2 -2 -35 -7 -72 -11 -37 -3 -78 -8 -90 -11 -12 -2 -39
-6 -62 -10 -78 -11 -301 -72 -400 -108 -143 -53 -383 -174 -500 -252 -201
-134 -411 -322 -540 -484 -33 -41 -63 -77 -66 -80 -26 -21 -184 -282 -240
-395 -115 -238 -186 -462 -226 -716 -18 -121 -25 -504 -11 -625 40 -334 145
-647 320 -959 127 -226 360 -492 582 -666 55 -44 107 -84 114 -91 72 -58 334
-200 482 -261 190 -77 449 -145 625 -163 147 -15 393 -20 480 -10 17 2 62 6
100 10 198 21 464 93 675 183 429 185 795 494 1063 896 184 276 339 678 372
967 3 30 8 62 10 70 20 78 21 478 1 585 -2 11 -7 45 -11 75 -12 91 -54 267
-92 384 -234 725 -808 1307 -1527 1548 -66 22 -127 41 -135 43 -9 2 -43 10
-76 18 -67 18 -160 36 -220 43 -22 3 -51 8 -65 11 -28 6 -485 15 -491 9z"/>
<path d="M744 5662 c-6 -4 -37 -43 -69 -87 -33 -44 -63 -83 -68 -86 -8 -6 10
-25 30 -31 6 -2 36 30 66 70 l55 73 48 -37 c27 -20 51 -38 52 -40 2 -1 -19
-33 -47 -69 -41 -53 -49 -70 -40 -81 19 -24 32 -16 82 52 l48 65 45 -33 c25
-18 47 -35 50 -39 2 -3 -21 -39 -52 -80 -50 -67 -53 -75 -38 -86 20 -15 34
-17 34 -5 0 4 14 23 30 42 39 46 104 140 99 144 -105 80 -297 224 -304 229 -6
3 -15 3 -21 -1z"/>
<path d="M6475 5162 c-38 -21 -108 -59 -156 -85 l-85 -46 -28 54 c-25 49 -29
53 -47 42 -10 -6 -19 -15 -19 -20 0 -4 30 -62 66 -128 48 -87 70 -119 81 -115
8 3 17 6 19 6 11 0 1 36 -21 74 l-25 42 43 22 c115 58 262 141 264 149 2 5 -2
16 -9 26 -12 15 -19 13 -83 -21z"/>
<path d="M386 5093 c-13 -25 -12 -29 8 -46 11 -10 53 -47 91 -81 39 -35 86
-77 105 -94 l35 -31 -30 4 c-28 3 -184 27 -267 40 -31 5 -39 3 -48 -15 -6 -12
-10 -27 -8 -34 2 -8 41 -46 88 -86 47 -41 87 -76 90 -79 15 -18 131 -113 134
-110 2 2 8 14 14 25 10 19 7 25 -22 48 -19 14 -40 31 -48 38 -7 7 -47 42 -88
77 -41 36 -79 69 -85 74 -6 5 6 6 28 3 21 -3 57 -8 80 -11 23 -3 53 -7 67 -10
13 -3 42 -7 65 -10 22 -3 52 -8 67 -11 23 -5 30 -1 40 21 10 23 10 29 -4 39
-17 12 -130 113 -202 179 l-41 38 30 -5 c17 -3 48 -9 70 -12 22 -3 84 -14 138
-23 l98 -18 15 29 c14 27 13 28 -8 29 -27 1 -41 3 -229 34 -81 14 -152 25
-158 25 -5 0 -17 -12 -25 -27z"/>
<path d="M6565 4747 c-105 -26 -172 -119 -160 -224 20 -176 218 -252 352 -136
92 81 84 249 -17 322 -57 41 -113 53 -175 38z m138 -73 c45 -33 70 -89 65
-146 -9 -85 -71 -141 -157 -141 -164 -1 -217 216 -71 291 54 28 122 26 163 -4z"/>
<path d="M180 4429 c-79 -32 -122 -144 -85 -222 27 -57 92 -78 143 -47 17 11
43 39 59 62 60 95 101 119 136 80 32 -35 15 -103 -33 -130 -37 -21 -39 -58 -2
-55 57 7 102 70 102 146 0 36 -6 51 -29 76 -16 17 -38 32 -50 32 -12 1 -27 2
-33 3 -30 5 -69 -28 -112 -94 -48 -73 -77 -91 -114 -71 -51 27 -28 136 34 166
35 16 38 22 28 49 -7 18 -10 18 -44 5z"/>
<path d="M6680 4076 c-51 -23 -89 -60 -109 -105 -19 -45 -20 -66 -6 -181 2
-19 4 -43 4 -54 1 -19 17 -19 175 0 21 2 62 6 90 9 136 13 145 15 140 39 -2
13 -6 47 -8 77 -8 105 -33 158 -95 199 -41 27 -147 36 -191 16z m142 -45 c19
-2 77 -65 82 -89 12 -61 17 -132 9 -132 -4 0 -41 -5 -82 -10 -41 -6 -106 -13
-146 -16 -80 -7 -72 -17 -76 99 -2 65 0 70 32 103 39 40 78 54 134 49 22 -2
43 -4 47 -4z"/>
<path d="M357 3474 c-1 -1 -67 -5 -147 -9 -80 -4 -158 -8 -175 -9 l-30 -2 2
-84 c1 -47 5 -100 8 -118 8 -45 81 -118 132 -131 53 -14 127 -5 172 20 43 24
90 90 92 129 3 45 -3 195 -7 199 -5 5 -42 9 -47 5z m4 -101 c4 -124 -8 -153
-79 -189 -70 -36 -164 -15 -201 46 -9 16 -18 53 -20 82 -1 28 -4 55 -7 59 -2
4 -2 13 1 21 4 9 33 14 102 16 54 2 98 4 100 5 1 1 24 3 52 5 l51 2 1 -47z"/>
<path d="M6566 3045 c-83 -82 -44 -225 60 -225 52 0 68 13 119 95 54 86 74
102 108 84 29 -16 37 -28 37 -62 0 -45 -26 -96 -57 -109 -15 -7 -30 -13 -31
-14 -2 -1 -1 -12 3 -23 9 -30 39 -26 79 9 44 39 62 94 57 172 -2 29 -51 77
-86 84 -61 11 -105 -19 -147 -103 -31 -62 -59 -86 -92 -77 -60 15 -57 119 4
146 32 14 34 17 24 42 -10 26 -41 18 -78 -19z"/>
<path d="M242 2847 c-44 -17 -91 -63 -113 -112 -48 -104 2 -231 109 -276 181
-78 358 111 270 288 -35 70 -91 106 -171 110 -34 1 -77 -3 -95 -10z m159 -59
c70 -39 99 -137 60 -208 -58 -109 -222 -112 -279 -5 -74 140 81 291 219 213z"/>
<path d="M6446 2608 c-3 -13 -6 -26 -6 -29 0 -4 26 -26 58 -50 31 -24 62 -48
68 -54 6 -5 39 -30 72 -55 58 -43 77 -64 50 -55 -12 4 -43 7 -203 20 -38 4
-82 8 -97 10 -22 2 -29 -2 -36 -23 -8 -26 -2 -32 117 -126 69 -54 130 -103
136 -108 9 -8 -28 -6 -120 6 -16 2 -59 7 -95 11 -36 4 -77 9 -93 11 -22 4 -29
0 -37 -21 -12 -33 -13 -32 3 -32 6 0 46 -3 87 -8 41 -4 89 -9 105 -10 17 -2
57 -6 90 -10 33 -3 75 -8 93 -10 28 -3 35 0 43 22 5 14 8 29 7 34 -2 4 -52 46
-113 94 -157 125 -153 118 -70 110 39 -4 86 -9 105 -11 146 -17 156 -17 168
11 7 14 12 28 12 29 0 3 -227 182 -326 258 -8 5 -14 1 -18 -14z"/>
<path d="M616 2307 c-18 -13 -18 -16 7 -65 l26 -52 -52 -24 c-260 -120 -269
-125 -261 -148 3 -13 8 -24 9 -26 1 -1 56 23 121 54 66 31 138 64 162 75 l42
18 28 -54 c25 -49 29 -53 48 -42 21 12 21 14 -40 144 -33 73 -64 133 -67 133
-3 0 -13 -6 -23 -13z"/>
<path d="M6119 1883 c-18 -26 -48 -69 -66 -95 -18 -26 -33 -52 -33 -56 0 -5
51 -42 113 -83 61 -40 132 -88 156 -106 24 -18 49 -33 56 -33 6 0 40 41 75 91
48 70 61 95 53 107 -5 9 -14 17 -19 19 -7 2 -61 -69 -106 -140 -6 -11 -108 48
-108 63 0 4 20 37 44 73 44 65 44 66 23 80 -20 13 -24 11 -65 -52 -25 -36 -46
-68 -48 -70 -4 -4 -104 59 -104 65 0 3 22 38 50 78 47 71 48 74 30 91 -17 16
-20 14 -51 -32z"/>
<path d="M1083 1543 c-11 -10 -79 -70 -151 -133 -73 -63 -132 -117 -132 -121
0 -3 8 -13 18 -22 16 -15 21 -13 63 26 64 60 160 141 169 145 4 2 -12 -74 -36
-168 -34 -131 -42 -176 -34 -191 13 -22 17 -23 34 -6 7 6 26 23 42 37 122 107
212 186 228 201 19 18 19 19 1 38 -19 22 -8 30 -205 -146 -14 -13 -28 -23 -31
-23 -4 0 0 26 8 58 8 31 16 64 18 72 2 8 15 60 29 114 21 83 23 102 12 117
-12 18 -14 18 -33 2z"/>
<path d="M5838 1496 c-10 -7 -18 -18 -18 -23 0 -5 46 -53 102 -106 56 -53 100
-98 97 -100 -2 -2 -82 9 -177 25 -160 26 -174 27 -189 12 -15 -15 -11 -21 58
-86 41 -38 106 -102 146 -141 72 -71 72 -71 93 -52 l22 20 -113 106 -113 107
50 -8 c27 -5 63 -11 79 -14 225 -38 236 -39 253 -23 14 15 12 20 -29 58 -24
23 -89 85 -144 140 -89 87 -102 96 -117 85z"/>
<path d="M1461 1088 c-22 -29 -76 -98 -120 -152 -45 -54 -81 -102 -81 -105 0
-7 16 -21 80 -71 25 -19 47 -37 50 -40 35 -35 50 -42 65 -30 25 21 17 33 -56
88 l-70 54 35 46 c19 25 38 48 43 49 4 2 37 -20 72 -49 60 -48 65 -50 77 -33
8 10 14 21 14 24 0 3 -30 28 -65 55 l-65 48 32 42 c17 22 35 45 39 50 5 5 40
-17 79 -49 58 -48 73 -55 85 -45 8 7 15 18 15 24 -1 11 -156 136 -178 144 -6
2 -29 -21 -51 -50z"/>
<path d="M5041 842 c-63 -37 -116 -71 -118 -77 -1 -5 2 -17 7 -25 8 -12 16
-10 59 13 28 15 53 27 55 27 2 0 43 -67 91 -150 47 -83 89 -150 91 -150 3 0
14 5 25 10 22 12 33 -12 -94 209 l-66 114 47 25 c26 13 49 26 50 28 8 6 -10
44 -21 43 -7 0 -63 -31 -126 -67z"/>
<path d="M1865 833 c-5 -27 -9 -52 -10 -58 -2 -5 -15 -75 -30 -155 -15 -80
-29 -148 -31 -151 -2 -4 10 -13 28 -20 l31 -13 113 120 c62 65 113 112 113
104 0 -8 -4 -34 -9 -58 -6 -23 -13 -59 -16 -80 -3 -20 -11 -68 -18 -105 l-13
-68 29 -15 c31 -16 19 -27 199 170 30 33 66 72 82 88 33 35 34 45 5 54 -23 7
-43 -12 -189 -174 -31 -34 -59 -62 -63 -62 -4 0 -5 4 -2 8 6 9 56 289 56 312
0 9 -11 22 -24 28 -22 10 -27 7 -50 -21 -14 -18 -67 -75 -117 -127 -68 -71
-90 -89 -86 -70 3 14 18 89 33 167 28 141 28 143 9 158 -29 21 -32 19 -40 -32z"/>
<path d="M4525 611 c-204 -95 -137 -401 88 -401 61 0 142 43 173 91 114 181
-70 399 -261 310z m173 -58 c15 -11 37 -37 50 -59 28 -47 26 -121 -5 -162 -24
-33 -97 -72 -136 -72 -72 0 -139 64 -151 145 -9 56 25 122 79 153 49 28 122
26 163 -5z"/>
<path d="M2583 515 c-64 -51 -53 -123 27 -183 25 -19 57 -43 73 -54 58 -44 18
-118 -58 -104 -42 8 -93 49 -97 79 -2 16 -9 21 -23 19 -28 -5 -34 -20 -21 -54
14 -39 57 -74 104 -88 93 -26 150 -1 171 75 14 53 -4 84 -89 145 -37 28 -70
56 -73 63 -5 16 11 59 26 69 36 23 100 -2 122 -48 12 -26 20 -32 35 -26 10 4
19 12 19 17 1 58 -56 107 -132 112 -44 3 -57 0 -84 -22z"/>
<path d="M3909 456 c-4 -4 -79 -14 -108 -15 -13 -1 -12 -46 4 -141 2 -14 6
-47 10 -75 3 -27 10 -79 15 -115 5 -36 10 -69 10 -73 0 -5 3 -6 8 -4 4 3 31 7
60 11 140 17 182 34 219 90 94 144 2 326 -164 326 -27 0 -52 -2 -54 -4z m129
-66 c47 -29 72 -76 72 -136 0 -85 -47 -137 -136 -149 -21 -3 -49 -8 -61 -10
-25 -6 -28 1 -39 90 -4 33 -8 67 -9 75 -1 8 -6 43 -10 77 l-7 62 38 4 c90 9
120 6 152 -13z"/>
</g>
</svg>
